{"title":"Moby.Dick.2010.DvDRip.H264.Feel-Free","uid":5970598,"size":972979664,"categoryP":"video","categoryS":"movies","magnet":"?xt=urn:btih:02025980ff27c3a1d3d27712146ed1e788c71764&amp;dn=Moby.Dick.2010.DvDRip.H264.Feel-Free&amp;tr=udp%3A%2F%2Ftracker.openbittorrent.com%3A80&amp;tr=udp%3A%2F%2Fopen.demonii.com%3A1337&amp;tr=udp%3A%2F%2Ftracker.coppersurfer.tk%3A6969&amp;tr=udp%3A%2F%2Fexodus.desync.com%3A6969","seeders":0,"leechers":1,"uploader":"hiest","files":7,"time":1290266671,"description":"Genre:Adventure\nLanguage:English\nIMDb:http://www.imdb.com/title/tt1694508/\nSource:DVDR-KART3LDVD\n\nGeneral\nComplete name :Moby.Dick.2010.DvDRip.H264.Feel-Free\nFormat : MPEG-4\nFormat profile : Base Media / Version 2\nCodec ID : mp42\nFile size : 927 MiB\nDuration : 1h 27mn\nOverall bit rate : 1 482 Kbps \nVideo #1\nCodec ID : avc1\nCodec ID/Info : Advanced Video Coding\nDuration : 1h 27mn\nBit rate mode : Variable\nBit rate : 1 001 Kbps\nWidth : 720 pixels\nHeight : 384 pixels\nDisplay aspect ratio : 1.875\nFrame rate mode : Constant\nFrame rate : 23.976 fps\nResolution : 24 bits\nColorimetry : 4:2:0\nScan type : Progressive\nBits/(Pixel*Frame) : 0.151\nStream size : 626 MiB (68%)\nAudio #2\nID : 2\nFormat : AAC\nFormat/Info : Advanced Audio Codec\nFormat version : Version 4\nFormat profile : LC\nFormat settings, SBR : No\nCodec ID : 40\nDuration : 1h 27mn\nBit rate mode : Constant\nBit rate : 477 Kbps\nNominal bit rate : 480 Kbps\nChannel(s) : 6 channels\nChannel positions : Front: L C R, Rear: L R, LFE\nSampling rate : 48.0 KHz\nResolution : 16 bits\nStream size : 298 MiB (32%)\n\nPlot:\nThat infamous whale is bigger, badder and a whole lot stronger in this sci-fi\nreimagining of Herman Melville's classic tale of the battle between man, sea and sea\ncreature starring &quot;Xena&quot; alum Ren e O'Connor as the (traditionally male) narrator. But the\nboat -- now a high-tech submarine -- is also bigger, and Capt. Ahab(Barry Bostwick) is as\ndetermined as ever to settle the score and take down the mighty sea mammal that maimed him.","torrent":{"xt":"urn:btih:02025980ff27c3a1d3d27712146ed1e788c71764","amp;dn":"Moby.Dick.2010.DvDRip.H264.Feel-Free","amp;tr":["udp%3A%2F%2Ftracker.openbittorrent.com%3A80","udp%3A%2F%2Fopen.demonii.com%3A1337","udp%3A%2F%2Ftracker.coppersurfer.tk%3A6969","udp%3A%2F%2Fexodus.desync.com%3A6969"],"infoHash":"02025980ff27c3a1d3d27712146ed1e788c71764","infoHashBuffer":{"type":"Buffer","data":[2,2,89,128,255,39,195,161,211,210,119,18,20,110,209,231,136,199,23,100]},"announce":[],"urlList":[]}}